<svg aria-hidden="true" version="1.1"
  xmlns="http://www.w3.org/2000/svg"
  xmlns:xlink="http://www.w3.org/1999/xlink">
  <defs>
    <symbol id="logo" viewBox="0 0 43 32">
      <path fill="blue" d="M12.084 3.517c1.23-0.546 2.589-0.172 3.753 0.401 1.298 0.678 2.624 1.665 3.156 3.214 0.239 0.632 0.082 1.37-0.328 1.865-0.323 0.307-0.782 0.221-1.169 0.178-0.878-0.21-1.416-1.078-2.099-1.647-0.592-0.579-1.222-1.206-2.023-1.366-0.715-0.131-1.335 0.394-1.793 0.94-0.689 0.945-1.125 2.081-1.464 3.228-0.221 1-0.69 1.955-0.633 3.010-0.067-0.974-0.317-1.922-0.341-2.9-0.045-1.262 0.099-2.53 0.384-3.75 0.523-1.307 1.33-2.601 2.557-3.172z"></path>
      <path fill="blue" d="M23.297 4.353c0.89-0.115 1.826 0.273 2.424 1.019 0.405 0.555 0.678 1.254 0.673 1.976-0.079 0.878-0.476 1.745-1.139 2.25-0.781 0.616-1.85 0.744-2.729 0.317-1.306-0.552-2.067-2.422-1.396-3.834 0.378-0.961 1.249-1.586 2.167-1.727z"></path>
      <path fill="blue" d="M32.565 9.455c0.053-0.003 0.106-0.005 0.16-0.004-0.022 0.521 0.1 1.041 0.022 1.56-0.124 0.892-0.447 1.729-0.796 2.536-0.768 1.906-2.221 3.479-3.983 4.22-0.809 0.317-1.768 0.293-2.497-0.249-1.179-0.856-2.105-2.16-2.511-3.667-0.257-0.813-0.266-1.79 0.176-2.528 0.221-0.323 0.519-0.684 0.917-0.66 0.412 0.042 0.78 0.317 1.029 0.676 0.586 0.855 0.708 1.966 1.191 2.879 0.404 0.589 1.057 1.288 1.779 0.943 0.87-0.409 1.602-1.105 2.31-1.787 0.895-0.855 1.517-1.997 2.014-3.173 0.1-0.236 0.169-0.487 0.189-0.748z"></path>
      <path fill="yellow" d="M10.827 14.921c0.518-0.487 1.282-0.44 1.884-0.196 0.605 0.286 1.242 0.507 1.794 0.913 0.857 0.611 1.676 1.295 2.409 2.082 0.828 0.744 1.597 1.575 2.256 2.506 0.486 0.636 0.994 1.379 0.956 2.26-0.359 1.283-1.348 2.222-2.377 2.85-1.365 0.771-2.887 1.077-4.345 1.551-0.631 0.226-1.293 0.309-1.949 0.387-0.743 0.045-1.489 0.215-2.232 0.069 0.476-0.384 1.051-0.555 1.574-0.84 1.501-0.72 2.914-1.644 4.376-2.454 0.62-0.333 1.226-0.758 1.581-1.437-0.019-0.149-0.037-0.298-0.055-0.446-0.416-0.469-0.93-0.804-1.46-1.087-0.618 0.568-1.331 1-1.9 1.635-1.563 1.293-3.29 2.307-4.954 3.426-2.24 1.4-4.36 3.032-6.643 4.349-0.133 0.053-0.269 0.094-0.409 0.124 0.877-1.062 1.898-1.966 2.761-3.043 1.246-1.451 2.491-2.902 3.791-4.294 1.373-1.469 2.707-2.982 3.979-4.56-0.537-0.552-1.229-1.060-1.392-1.905-0.155-0.64-0.064-1.395 0.357-1.889z"></path>
    </symbol>
  </defs>
</svg>